<svg xmlns="http://www.w3.org/2000/svg">

<symbol id="icon-instagram" viewBox="0 0 24 24">
<path fill="currentColor" d="M7 2h10a5 5 0 0 1 5 5v10a5 5 0 0 1-5 5H7a5 5 0 0 1-5-5V7a5 5 0 0 1 5-5zm5 4.5A5.5 5.5 0 1 0 17.5 12 5.5 5.5 0 0 0 12 6.5zm0 2A3.5 3.5 0 1 1 8.5 12 3.5 3.5 0 0 1 12 8.5zm6-3a1.25 1.25 0 1 0 1.25 1.25A1.25 1.25 0 0 0 18 5.5z"/>
</symbol>

<symbol id="icon-twitter" viewBox="0 0 24 24">
<path fill="currentColor" d="M22 5.9c-.7.3-1.5.5-2.2.6.8-.5 1.4-1.2 1.7-2-.8.5-1.7.8-2.6 1A4.1 4.1 0 0 0 12 8.2a11.7 11.7 0 0 1-8.5-4.3 4.1 4.1 0 0 0 1.3 5.5c-.6 0-1.2-.2-1.8-.5 0 2 1.4 3.8 3.4 4.2-.5.1-1 .2-1.6.1.5 1.7 2.1 2.9 3.9 2.9A8.3 8.3 0 0 1 2 18.5a11.7 11.7 0 0 0 6.3 1.8c7.6 0 11.7-6.3 11.7-11.7v-.5c.8-.6 1.5-1.3 2-2.2z"/>
</symbol>

<symbol id="icon-facebook" viewBox="0 0 24 24">
<path fill="currentColor" d="M14 8h3V4h-3c-3 0-5 2-5 5v3H6v4h3v8h4v-8h3l1-4h-4V9c0-.7.3-1 1-1z"/>
</symbol>

<symbol id="icon-linkedin" viewBox="0 0 24 24">
<path fill="currentColor" d="M4.98 3.5A2.49 2.49 0 1 0 5 8.48 2.49 2.49 0 0 0 4.98 3.5zM3 9h4v12H3zm7 0h3.8v1.7h.1c.5-.9 1.8-2.1 3.8-2.1 4 0 4.7 2.6 4.7 6V21h-4v-5.3c0-1.3 0-2.9-1.8-2.9s-2.1 1.4-2.1 2.8V21h-4z"/>
</symbol>

</svg>
